<svg width="189" height="30" viewBox="0 0 189 30" fill="none" xmlns="http://www.w3.org/2000/svg">
<path fill-rule="evenodd" clip-rule="evenodd" d="M1.54912 0.404785C0.693563 0.404785 0 1.09835 0 1.9539V14.0271C0 14.8827 0.693563 15.5762 1.54912 15.5762H10.5488C11.4044 15.5762 12.0979 16.2698 12.0979 17.1253V28.0462C12.0979 28.9017 12.7915 29.5953 13.6471 29.5953H20.0807C20.5291 29.5953 20.9556 29.4009 21.2498 29.0625L30.2161 18.7479C31.1562 17.6665 32.9344 18.3313 32.9344 19.7642V28.0462C32.9344 28.9017 33.6279 29.5953 34.4835 29.5953H40.9184C41.3668 29.5953 41.7933 29.4009 42.0875 29.0625L53.4311 16.0131C53.7254 15.6747 54.1518 15.4803 54.6003 15.4803H58.0793C58.9348 15.4803 59.6284 14.7868 59.6284 13.9312V1.95398C59.6284 1.09842 58.9348 0.40486 58.0793 0.404859L46.7885 0.404859C46.34 0.404859 45.9136 0.599205 45.6193 0.937663L35.7489 12.2923C34.8088 13.3737 33.0306 12.7089 33.0306 11.276V1.95396C33.0306 1.09841 32.3371 0.404847 31.4815 0.404847L25.9522 0.404847C25.5037 0.404847 25.0773 0.599193 24.783 0.937651L15.0693 12.112C14.1293 13.1934 12.3511 12.5286 12.3511 11.0957V1.9539C12.3511 1.09835 11.6575 0.404786 10.802 0.404786L1.54912 0.404785Z" fill="url(#paint0_linear_101_403)"/>
<path d="M176.248 17.6599C176.485 18.7819 177.026 19.6481 177.872 20.2583C178.719 20.8489 179.752 21.1442 180.973 21.1442C182.666 21.1442 183.935 20.5339 184.782 19.3134L187.41 20.8489C185.953 22.9946 183.798 24.0675 180.943 24.0675C178.542 24.0675 176.603 23.3391 175.126 21.8824C173.65 20.406 172.912 18.5457 172.912 16.3016C172.912 14.0968 173.64 12.2562 175.097 10.7798C176.553 9.28369 178.424 8.53564 180.707 8.53564C182.872 8.53564 184.644 9.29353 186.022 10.8093C187.42 12.3251 188.119 14.1657 188.119 16.3311C188.119 16.6657 188.079 17.1087 188.001 17.6599H176.248ZM176.219 15.0614H184.9C184.684 13.8606 184.182 12.955 183.394 12.3448C182.626 11.7345 181.721 11.4294 180.678 11.4294C179.496 11.4294 178.512 11.7542 177.725 12.4038C176.937 13.0535 176.435 13.9393 176.219 15.0614Z" fill="black"/>
<path d="M159.496 17.6599C159.732 18.7819 160.273 19.6481 161.12 20.2583C161.966 20.8489 163 21.1442 164.22 21.1442C165.913 21.1442 167.183 20.5339 168.03 19.3134L170.658 20.8489C169.201 22.9946 167.045 24.0675 164.191 24.0675C161.789 24.0675 159.85 23.3391 158.374 21.8824C156.897 20.406 156.159 18.5457 156.159 16.3016C156.159 14.0968 156.888 12.2562 158.344 10.7798C159.801 9.28369 161.671 8.53564 163.955 8.53564C166.12 8.53564 167.892 9.29353 169.27 10.8093C170.667 12.3251 171.366 14.1657 171.366 16.3311C171.366 16.6657 171.327 17.1087 171.248 17.6599H159.496ZM159.466 15.0614H168.148C167.931 13.8606 167.429 12.955 166.642 12.3448C165.874 11.7345 164.968 11.4294 163.925 11.4294C162.744 11.4294 161.76 11.7542 160.972 12.4038C160.185 13.0535 159.683 13.9393 159.466 15.0614Z" fill="black"/>
<path d="M155.812 5.70085C153.489 5.48431 152.328 6.45874 152.328 8.62414V8.91942H155.812V11.9904H152.328V23.6835H149.139V11.9904H146.895V8.91942H149.139V8.62414C149.139 6.59654 149.7 5.06107 150.822 4.01775C151.964 2.95473 153.627 2.49212 155.812 2.62992V5.70085Z" fill="black"/>
<path d="M145.915 5.70085C143.592 5.48431 142.43 6.45874 142.43 8.62414V8.91942H145.915V11.9904H142.43V23.6835H139.241V11.9904H136.997V8.91942H139.241V8.62414C139.241 6.59654 139.802 5.06107 140.924 4.01775C142.066 2.95473 143.729 2.49212 145.915 2.62992V5.70085Z" fill="black"/>
<path d="M128.365 24.0675C126.2 24.0675 124.359 23.3194 122.843 21.8233C121.328 20.3272 120.57 18.4866 120.57 16.3016C120.57 14.1165 121.328 12.2759 122.843 10.7798C124.359 9.28369 126.2 8.53564 128.365 8.53564C130.55 8.53564 132.391 9.28369 133.887 10.7798C135.403 12.2759 136.161 14.1165 136.161 16.3016C136.161 18.4866 135.403 20.3272 133.887 21.8233C132.391 23.3194 130.55 24.0675 128.365 24.0675ZM125.088 19.6382C125.973 20.5241 127.066 20.967 128.365 20.967C129.665 20.967 130.757 20.5241 131.643 19.6382C132.529 18.7524 132.972 17.6402 132.972 16.3016C132.972 14.9629 132.529 13.8507 131.643 12.9649C130.757 12.079 129.665 11.6361 128.365 11.6361C127.066 11.6361 125.973 12.079 125.088 12.9649C124.202 13.8507 123.759 14.9629 123.759 16.3016C123.759 17.6402 124.202 18.7524 125.088 19.6382Z" fill="black"/>
<path d="M119.805 11.9905H116.143V19.0773C116.143 19.6875 116.281 20.1305 116.557 20.4061C116.832 20.662 117.236 20.8096 117.767 20.849C118.319 20.8687 118.998 20.8588 119.805 20.8194V23.6837C117.364 23.979 115.612 23.7723 114.549 23.0636C113.486 22.3352 112.954 21.0065 112.954 19.0773V11.9905H110.238V8.91959H112.954V5.73055L116.143 4.78564V8.91959H119.805V11.9905Z" fill="black"/>
<path d="M101.265 8.53564C103.292 8.53564 105.025 9.29353 106.462 10.8093C107.899 12.3054 108.617 14.1362 108.617 16.3016C108.617 18.4866 107.899 20.3272 106.462 21.8233C105.025 23.3194 103.292 24.0675 101.265 24.0675C99.0205 24.0675 97.2981 23.2407 96.0972 21.5871V29.5892H92.9082V8.91951H96.0972V11.0455C97.2981 9.37228 99.0205 8.53564 101.265 8.53564ZM97.426 19.6973C98.3119 20.5831 99.4241 21.0261 100.763 21.0261C102.101 21.0261 103.214 20.5831 104.099 19.6973C104.985 18.7918 105.428 17.6599 105.428 16.3016C105.428 14.9433 104.985 13.8212 104.099 12.9353C103.214 12.0298 102.101 11.577 100.763 11.577C99.4241 11.577 98.3119 12.0298 97.426 12.9353C96.5402 13.8212 96.0972 14.9433 96.0972 16.3016C96.0972 17.6599 96.5402 18.7918 97.426 19.6973Z" fill="black"/>
<path d="M87.1934 8.91943H90.5597L85.9237 23.6835H82.7937L79.7228 13.7325L76.6224 23.6835H73.4924L68.8564 8.91943H72.2227L75.0869 19.1067L78.1874 8.91943H81.2288L84.2997 19.1067L87.1934 8.91943Z" fill="black"/>
<defs>
<linearGradient id="paint0_linear_101_403" x1="59.6769" y1="0.404785" x2="-9.08126" y2="0.404785" gradientUnits="userSpaceOnUse">
<stop stop-color="#01B0FF"/>
<stop offset="1" stop-color="#0176FF"/>
</linearGradient>
</defs>
</svg>
