<svg width="156" height="28" viewBox="0 0 156 28" fill="none" xmlns="http://www.w3.org/2000/svg">
<path d="M12.701 3.90799C13.233 2.82999 14.77 2.82999 15.301 3.90799L17.993 9.35999L24.01 10.235C25.2 10.408 25.674 11.869 24.814 12.708L20.459 16.952L21.487 22.945C21.691 24.13 20.447 25.033 19.384 24.474L14.002 21.644L8.62001 24.474C7.55601 25.033 6.31301 24.13 6.51601 22.945L7.54401 16.952L3.18901 12.708C2.32901 11.869 2.80401 10.408 3.99301 10.235L10.01 9.35999L12.701 3.90799Z" fill="#FF9B0F"/>
<path d="M44.701 3.90799C45.233 2.82999 46.77 2.82999 47.301 3.90799L49.993 9.35999L56.01 10.235C57.2 10.408 57.674 11.869 56.814 12.708L52.459 16.952L53.487 22.945C53.691 24.13 52.447 25.033 51.384 24.474L46.002 21.644L40.62 24.474C39.556 25.033 38.313 24.13 38.516 22.945L39.544 16.952L35.189 12.708C34.329 11.869 34.804 10.408 35.993 10.235L42.01 9.35999L44.701 3.90799Z" fill="#FF9B0F"/>
<path d="M76.701 3.90799C77.233 2.82999 78.77 2.82999 79.301 3.90799L81.993 9.35999L88.01 10.235C89.2 10.408 89.674 11.869 88.814 12.708L84.459 16.952L85.487 22.945C85.691 24.13 84.447 25.033 83.384 24.474L78.002 21.644L72.62 24.474C71.556 25.033 70.313 24.13 70.516 22.945L71.544 16.952L67.189 12.708C66.329 11.869 66.804 10.408 67.993 10.235L74.01 9.35999L76.701 3.90799Z" fill="#FF9B0F"/>
<path d="M108.701 3.90799C109.233 2.82999 110.77 2.82999 111.301 3.90799L113.993 9.35999L120.01 10.235C121.2 10.408 121.674 11.869 120.814 12.708L116.459 16.952L117.487 22.945C117.691 24.13 116.447 25.033 115.384 24.474L110.002 21.644L104.62 24.474C103.556 25.033 102.313 24.13 102.516 22.945L103.544 16.952L99.189 12.708C98.329 11.869 98.804 10.408 99.993 10.235L106.01 9.35999L108.701 3.90799Z" fill="#FF9B0F"/>
<path d="M140.701 3.90799C141.233 2.82999 142.77 2.82999 143.301 3.90799L145.993 9.35999L152.01 10.235C153.2 10.408 153.674 11.869 152.814 12.708L148.459 16.952L149.487 22.945C149.691 24.13 148.447 25.033 147.384 24.474L142.002 21.644L136.62 24.474C135.556 25.033 134.313 24.13 134.516 22.945L135.544 16.952L131.189 12.708C130.329 11.869 130.804 10.408 131.993 10.235L138.01 9.35999L140.701 3.90799Z" fill="#FF9B0F"/>
</svg>
