<?xml version="1.0" encoding="utf-8"?>
<!-- Generator: Adobe Illustrator 23.0.0, SVG Export Plug-In . SVG Version: 6.00 Build 0)  -->
<svg version="1.1" id="Layer_1" xmlns="http://www.w3.org/2000/svg" xmlns:xlink="http://www.w3.org/1999/xlink" x="0px" y="0px"
	 viewBox="0 0 146.7 30" style="enable-background:new 0 0 146.7 30;" xml:space="preserve">
<style type="text/css">
	.st0{fill-rule:evenodd;clip-rule:evenodd;fill:url(#SVGID_1_);}
	.st1{font-family:'Inter-SemiBold';}
	.st2{font-size:25.5578px;}
</style>
<linearGradient id="SVGID_1_" gradientUnits="userSpaceOnUse" x1="59.6284" y1="17.0668" x2="-9.1298" y2="17.0668" gradientTransform="matrix(1 0 0 -1 0 32)">
	<stop  offset="0" style="stop-color:#01B0FF"/>
	<stop  offset="1" style="stop-color:#0176FF"/>
</linearGradient>
<path class="st0" d="M1.5,0.3C0.7,0.3,0,1,0,1.9V14c0,0.9,0.7,1.5,1.5,1.5h9c0.9,0,1.5,0.7,1.5,1.5V28c0,0.9,0.7,1.5,1.5,1.5h6.4
	c0.4,0,0.9-0.2,1.2-0.5l9-10.3c0.9-1.1,2.7-0.4,2.7,1V28c0,0.9,0.7,1.5,1.5,1.5h6.4c0.4,0,0.9-0.2,1.2-0.5l11.3-13
	c0.3-0.3,0.7-0.5,1.2-0.5h3.5c0.9,0,1.5-0.7,1.5-1.5v-12c0-0.9-0.7-1.5-1.5-1.5H46.8c-0.4,0-0.9,0.2-1.2,0.5l-9.9,11.4
	c-0.9,1.1-2.7,0.4-2.7-1V1.9c0-0.9-0.7-1.5-1.5-1.5H26c-0.4,0-0.9,0.2-1.2,0.5L15.1,12c-0.9,1.1-2.7,0.4-2.7-1V1.9
	c0-0.9-0.7-1.5-1.5-1.5L1.5,0.3z"/>
<text transform="matrix(1.0471 0 0 1 68.4468 21.747)" class="st1 st2">wpkin</text>
</svg>
