<?xml version="1.0" encoding="utf-8"?>
<!-- Generator: Adobe Illustrator 23.0.0, SVG Export Plug-In . SVG Version: 6.00 Build 0)  -->
<svg version="1.1" id="Layer_1" xmlns="http://www.w3.org/2000/svg" xmlns:xlink="http://www.w3.org/1999/xlink" x="0px" y="0px"
	 viewBox="0 0 146.7 30" style="enable-background:new 0 0 146.7 30;" xml:space="preserve">
<style type="text/css">
	.st0{fill-rule:evenodd;clip-rule:evenodd;fill:url(#SVGID_1_);}
	.st1{enable-background:new    ;}
</style>
<linearGradient id="SVGID_1_" gradientUnits="userSpaceOnUse" x1="59.6284" y1="382.9" x2="-9.1298" y2="382.9" gradientTransform="matrix(1 0 0 1 0 -368)">
	<stop  offset="0" style="stop-color:#01B0FF"/>
	<stop  offset="1" style="stop-color:#0176FF"/>
</linearGradient>
<path class="st0" d="M1.5,0.3C0.7,0.3,0,1,0,1.9V14c0,0.9,0.7,1.5,1.5,1.5h9c0.9,0,1.5,0.7,1.5,1.5v11c0,0.9,0.7,1.5,1.5,1.5h6.4
	c0.4,0,0.9-0.2,1.2-0.5l9-10.3c0.9-1.1,2.7-0.4,2.7,1V28c0,0.9,0.7,1.5,1.5,1.5h6.4c0.4,0,0.9-0.2,1.2-0.5l11.3-13
	c0.3-0.3,0.7-0.5,1.2-0.5h3.5c0.9,0,1.5-0.7,1.5-1.5V2c0-0.9-0.7-1.5-1.5-1.5H46.8c-0.4,0-0.9,0.2-1.2,0.5l-9.9,11.4
	c-0.9,1.1-2.7,0.4-2.7-1V1.9c0-0.9-0.7-1.5-1.5-1.5H26c-0.4,0-0.9,0.2-1.2,0.5L15.1,12c-0.9,1.1-2.7,0.4-2.7-1V1.9
	c0-0.9-0.7-1.5-1.5-1.5L1.5,0.3z"/>
<g class="st1">
	<path d="M73.4,21.7L69,7.8h3.6l1.4,5.5c0.2,0.8,0.4,1.6,0.6,2.5c0.2,0.9,0.4,1.9,0.6,2.9c0.2-1,0.4-2,0.7-2.9
		c0.2-0.9,0.4-1.7,0.7-2.5l1.5-5.5h3.2l1.4,5.5c0.2,0.8,0.4,1.6,0.6,2.5c0.2,0.9,0.4,1.9,0.7,2.9c0.2-1,0.4-2,0.6-2.9
		c0.2-0.9,0.4-1.7,0.6-2.5l1.4-5.5h3.6l-4.4,14h-3.4l-1.7-5.7c-0.2-0.7-0.4-1.4-0.6-2.2c-0.2-0.8-0.4-1.6-0.6-2.4
		c-0.2,0.8-0.4,1.6-0.6,2.4c-0.2,0.8-0.4,1.5-0.6,2.2l-1.7,5.7H73.4z"/>
	<path d="M92.7,27V7.8H96v2.3h0.2C96.4,9.8,96.7,9.4,97,9c0.3-0.4,0.8-0.7,1.3-1c0.6-0.3,1.3-0.4,2.1-0.4c1.1,0,2.1,0.3,3.1,0.8
		c0.9,0.5,1.6,1.4,2.2,2.4c0.5,1.1,0.8,2.4,0.8,3.9c0,1.5-0.3,2.8-0.8,3.9c-0.5,1.1-1.2,1.9-2.1,2.5c-0.9,0.6-1.9,0.8-3.1,0.8
		c-0.8,0-1.5-0.1-2.1-0.4c-0.6-0.3-1-0.6-1.3-1c-0.3-0.4-0.6-0.7-0.8-1.1h-0.1V27H92.7z M99.5,19.3c1.1,0,2-0.4,2.6-1.3
		c0.6-0.9,0.9-1.9,0.9-3.3c0-1.3-0.3-2.4-0.9-3.2c-0.6-0.8-1.4-1.3-2.6-1.3c-1.1,0-2,0.4-2.6,1.2c-0.6,0.8-0.9,1.9-0.9,3.3
		s0.3,2.5,0.9,3.3S98.4,19.3,99.5,19.3z"/>
	<path d="M109.4,21.7V3.2h3.4v10.3h0.2l5.3-5.6h4l-5.7,6l6,7.9h-4.1l-4.5-6l-1.3,1.3v4.7H109.4z"/>
	<path d="M126.3,5.8c-0.5,0-1-0.2-1.4-0.5c-0.4-0.3-0.6-0.8-0.6-1.3c0-0.5,0.2-0.9,0.6-1.3c0.4-0.3,0.9-0.5,1.4-0.5
		c0.5,0,1,0.2,1.4,0.5s0.6,0.8,0.6,1.3c0,0.5-0.2,0.9-0.6,1.3S126.9,5.8,126.3,5.8z M124.6,21.7v-14h3.4v14H124.6z"/>
	<path d="M135.1,13.6v8.2h-3.4v-14h3.2l0,2.8c0.9-2,2.4-3,4.5-3c1.5,0,2.7,0.5,3.6,1.4c0.9,0.9,1.4,2.2,1.4,3.9v8.9H141v-8.4
		c0-0.9-0.3-1.7-0.8-2.2c-0.5-0.5-1.2-0.8-2.1-0.8c-0.9,0-1.7,0.3-2.2,0.8C135.3,11.8,135.1,12.6,135.1,13.6z"/>
</g>
</svg>
